Coordinates
version=1
nRows=11
nColumns=32
inDegrees=yes

Units are S.I. units (second, meters, Newtons, ...)
If the header above contains a line with 'inDegrees', this indicates whether rotational values are in degrees (yes) or radians (no).

endheader
time	pelvis_tilt	pelvis_list	pelvis_rotation	pelvis_tx	pelvis_ty	pelvis_tz	hip_flexion_r	hip_adduction_r	hip_rotation_r	knee_angle_r	knee_adduction_r	med_cond_adduction_r	lat_cond_adduction_r	patella_r_constrained_knee_angle	ankle_angle_r	subtalar_angle_r	mtp_angle_r	hip_flexion_l	hip_adduction_l	hip_rotation_l	knee_angle_l	knee_adduction_l	med_cond_adduction_l	lat_cond_adduction_l	patella_l_constrained_knee_angle	ankle_angle_l	subtalar_angle_l	mtp_angle_l	lumbar_extension	lumbar_bending	lumbar_rotation
      0.00500000	     -3.27807509	      9.82178161	     89.91385313	      0.22311344	      0.95865876	      2.57523973	     14.96936760	     -4.18001951	    -18.74715763	    -48.60984149	      0.00000000	      0.00000000	     -0.00000000	     -0.84840178	    -17.95522155	    -19.63778236	     -0.00000000	      6.42661428	      8.21427350	     -1.49334806	    -31.56596771	      0.00000000	      0.00000000	     -0.00000000	     -0.55093007	     -2.69076984	     -9.66495870	     -0.00000000	     -0.00000000	     -0.00000000	     -0.00000000
      0.01000000	     -3.25022407	      9.90010525	     89.94780548	      0.22311407	      0.95871847	      2.57526596	     14.87364582	     -4.15614126	    -18.79835601	    -48.60272999	      0.00000000	     -0.00000000	      0.00000000	     -0.84827766	    -17.93261206	    -19.63725576	      0.00000000	      6.35138648	      8.17415661	     -1.48032544	    -31.59901455	      0.00000000	     -0.00000000	      0.00000000	     -0.55150684	     -2.56733728	     -9.50918438	      0.00000000	     -0.00000000	     -0.00000000	     -0.00000000
      0.01500000	     -3.25559200	      9.87846086	     89.94003799	      0.22312738	      0.95870733	      2.57524040	     14.89262788	     -4.15586010	    -18.78786320	    -48.59499893	     -0.00000000	     -0.00000000	      0.00000000	     -0.84814273	    -17.91786809	    -19.63704834	     -0.00000000	      6.36233241	      8.18483087	     -1.46340881	    -31.57848578	      0.00000000	      0.00000000	     -0.00000000	     -0.55114855	     -2.58423995	     -9.54269286	      0.00000000	     -0.00000000	     -0.00000000	     -0.00000000
      0.02000000	     -3.25537587	      9.87857850	     89.94002416	      0.22312639	      0.95870748	      2.57524030	     14.89259755	     -4.15585565	    -18.78796649	    -48.59533480	     -0.00000000	      0.00000000	     -0.00000000	     -0.84814859	    -17.91721002	    -19.63706925	      0.00000000	      6.36225186	      8.18456308	     -1.46336406	    -31.57848652	      0.00000000	     -0.00000000	      0.00000000	     -0.55114856	     -2.58421039	     -9.54189563	     -0.00000000	     -0.00000000	     -0.00000000	     -0.00000000
      0.02500000	     -3.25541080	      9.87860720	     89.94005394	      0.22312653	      0.95870750	      2.57524034	     14.89254668	     -4.15585942	    -18.78796859	    -48.59527547	      0.00000000	      0.00000000	     -0.00000000	     -0.84814756	    -17.91730340	    -19.63706568	     -0.00000000	      6.36220975	      8.18460627	     -1.46335206	    -31.57848801	     -0.00000000	      0.00000000	     -0.00000000	     -0.55114859	     -2.58417497	     -9.54196508	      0.00000000	     -0.00000000	     -0.00000000	     -0.00000000
      0.03000000	     -3.25540646	      9.87860296	     89.94004980	      0.22312651	      0.95870749	      2.57524033	     14.89255380	     -4.15585889	    -18.78796791	    -48.59528289	     -0.00000000	     -0.00000000	      0.00000000	     -0.84814769	    -17.91729114	    -19.63706614	      0.00000000	      6.36221566	      8.18460096	     -1.46335346	    -31.57848765	     -0.00000000	      0.00000000	     -0.00000000	     -0.55114858	     -2.58418037	     -9.54195757	     -0.00000000	     -0.00000000	     -0.00000000	     -0.00000000
      0.03500000	     -3.25540704	      9.87860353	     89.94005036	      0.22312651	      0.95870749	      2.57524033	     14.89255284	     -4.15585897	    -18.78796800	    -48.59528190	      0.00000000	     -0.00000000	      0.00000000	     -0.84814767	    -17.91729277	    -19.63706608	      0.00000000	      6.36221487	      8.18460167	     -1.46335326	    -31.57848770	     -0.00000000	     -0.00000000	      0.00000000	     -0.55114858	     -2.58417964	     -9.54195855	      0.00000000	     -0.00000000	     -0.00000000	     -0.00000000
      0.04000000	     -3.25540696	      9.87860345	     89.94005029	      0.22312651	      0.95870749	      2.57524033	     14.89255297	     -4.15585896	    -18.78796799	    -48.59528203	      0.00000000	      0.00000000	     -0.00000000	     -0.84814767	    -17.91729255	    -19.63706609	      0.00000000	      6.36221497	      8.18460158	     -1.46335329	    -31.57848769	     -0.00000000	     -0.00000000	     -0.00000000	     -0.55114858	     -2.58417973	     -9.54195842	      0.00000000	     -0.00000000	     -0.00000000	     -0.00000000
      0.04500000	     -3.25540697	      9.87860346	     89.94005030	      0.22312651	      0.95870749	      2.57524033	     14.89255296	     -4.15585896	    -18.78796799	    -48.59528202	     -0.00000000	      0.00000000	     -0.00000000	     -0.84814767	    -17.91729258	    -19.63706609	     -0.00000000	      6.36221496	      8.18460159	     -1.46335329	    -31.57848769	     -0.00000000	     -0.00000000	      0.00000000	     -0.55114858	     -2.58417973	     -9.54195845	     -0.00000000	     -0.00000000	     -0.00000000	     -0.00000000
      0.05000000	     -3.25540697	      9.87860346	     89.94005030	      0.22312651	      0.95870749	      2.57524033	     14.89255296	     -4.15585896	    -18.78796799	    -48.59528202	      0.00000000	     -0.00000000	      0.00000000	     -0.84814767	    -17.91729257	    -19.63706609	     -0.00000000	      6.36221496	      8.18460159	     -1.46335329	    -31.57848769	      0.00000000	      0.00000000	     -0.00000000	     -0.55114858	     -2.58417972	     -9.54195843	     -0.00000000	     -0.00000000	     -0.00000000	     -0.00000000
      0.05500000	     -3.25540697	      9.87860346	     89.94005030	      0.22312651	      0.95870749	      2.57524033	     14.89255296	     -4.15585896	    -18.78796799	    -48.59528202	      0.00000000	     -0.00000000	      0.00000000	     -0.84814767	    -17.91729257	    -19.63706609	     -0.00000000	      6.36221496	      8.18460159	     -1.46335329	    -31.57848769	     -0.00000000	      0.00000000	     -0.00000000	     -0.55114858	     -2.58417972	     -9.54195844	      0.00000000	     -0.00000000	     -0.00000000	     -0.00000000
